<svg xmlns="http://www.w3.org/2000/svg">
  <defs>

<!-- header -->
    <symbol id="icon-instagram" viewBox="0 0 32 32">
      <path d="M16 2.881c4.275 0 4.781 0.019 6.462 0.094 1.563 0.069 2.406 0.331 2.969 0.55 0.744 0.288 1.281 0.638 1.837 1.194 0.563 0.563 0.906 1.094 1.2 1.838 0.219 0.563 0.481 1.412 0.55 2.969 0.075 1.688 0.094 2.194 0.094 6.463s-0.019 4.781-0.094 6.463c-0.069 1.563-0.331 2.406-0.55 2.969-0.288 0.744-0.637 1.281-1.194 1.837-0.563 0.563-1.094 0.906-1.837 1.2-0.563 0.219-1.413 0.481-2.969 0.55-1.688 0.075-2.194 0.094-6.463 0.094s-4.781-0.019-6.463-0.094c-1.563-0.069-2.406-0.331-2.969-0.55-0.744-0.288-1.281-0.637-1.838-1.194-0.563-0.563-0.906-1.094-1.2-1.837-0.219-0.563-0.481-1.413-0.55-2.969-0.075-1.688-0.094-2.194-0.094-6.463s0.019-4.781 0.094-6.463c0.069-1.563 0.331-2.406 0.55-2.969 0.288-0.744 0.638-1.281 1.194-1.838 0.563-0.563 1.094-0.906 1.838-1.2 0.563-0.219 1.412-0.481 2.969-0.55 1.681-0.075 2.188-0.094 6.463-0.094zM16 0c-4.344 0-4.887 0.019-6.594 0.094-1.7 0.075-2.869 0.35-3.881 0.744-1.056 0.412-1.95 0.956-2.837 1.85-0.894 0.888-1.438 1.781-1.85 2.831-0.394 1.019-0.669 2.181-0.744 3.881-0.075 1.713-0.094 2.256-0.094 6.6s0.019 4.887 0.094 6.594c0.075 1.7 0.35 2.869 0.744 3.881 0.413 1.056 0.956 1.95 1.85 2.837 0.887 0.887 1.781 1.438 2.831 1.844 1.019 0.394 2.181 0.669 3.881 0.744 1.706 0.075 2.25 0.094 6.594 0.094s4.888-0.019 6.594-0.094c1.7-0.075 2.869-0.35 3.881-0.744 1.050-0.406 1.944-0.956 2.831-1.844s1.438-1.781 1.844-2.831c0.394-1.019 0.669-2.181 0.744-3.881 0.075-1.706 0.094-2.25 0.094-6.594s-0.019-4.887-0.094-6.594c-0.075-1.7-0.35-2.869-0.744-3.881-0.394-1.063-0.938-1.956-1.831-2.844-0.887-0.887-1.781-1.438-2.831-1.844-1.019-0.394-2.181-0.669-3.881-0.744-1.712-0.081-2.256-0.1-6.6-0.1v0z"></path>
      <path d="M16 7.781c-4.537 0-8.219 3.681-8.219 8.219s3.681 8.219 8.219 8.219 8.219-3.681 8.219-8.219c0-4.537-3.681-8.219-8.219-8.219zM16 21.331c-2.944 0-5.331-2.387-5.331-5.331s2.387-5.331 5.331-5.331c2.944 0 5.331 2.387 5.331 5.331s-2.387 5.331-5.331 5.331z"></path>
      <path d="M26.462 7.456c0 1.060-0.859 1.919-1.919 1.919s-1.919-0.859-1.919-1.919c0-1.060 0.859-1.919 1.919-1.919s1.919 0.859 1.919 1.919z"></path>
    </symbol>
    <symbol id="icon-phone" viewBox="0 0 32 32">
      <path d="M22 20c-2 2-2 4-4 4s-4-2-6-4-4-4-4-6 2-2 4-4-4-8-6-8-6 6-6 6c0 4 4.109 12.109 8 16s12 8 16 8c0 0 6-4 6-6s-6-8-8-6z"></path>
    </symbol>
    <symbol id="icon-snail" viewBox="0 0 32 32">
      <path d="M28.625 0c-1.472 0-2.67 1.198-2.67 2.67 0 0.344 0.066 0.673 0.185 0.975-1.034 1.193-1.707 2.801-2.016 4.036-0.394-0.091-0.803-0.14-1.224-0.14s-0.83 0.050-1.224 0.14c-0.309-1.236-0.982-2.844-2.016-4.036 0.119-0.302 0.185-0.631 0.185-0.975-0-1.472-1.198-2.67-2.67-2.67s-2.67 1.198-2.67 2.67 1.198 2.67 2.67 2.67c0.406 0 0.792-0.092 1.137-0.255 0.84 1.049 1.365 2.519 1.539 3.392-1.115 0.756-1.935 1.916-2.251 3.266-1.378-0.575-2.87-0.875-4.387-0.875-5.304 0-9.843 3.619-10.873 8.634-0.411 0.648-0.73 1.377-0.943 2.164-0.432 0.597-0.693 1.366-0.693 2.205 0 0.797 0.236 1.53 0.63 2.114 0.748 3.134 3.14 5.306 5.878 5.306 0.33 0 0.656-0.031 0.976-0.092 0.712 0.366 1.721 0.8 3.182 0.8h8.933c3.028 0 5.144-0.648 6.471-1.982 1.594-1.603 1.583-3.775 1.575-5.212-0-0.098-0.001-0.193-0.001-0.286l-0.002-11.534c0-1.873-0.951-3.529-2.396-4.509 0.174-0.873 0.699-2.343 1.539-3.392 0.345 0.163 0.73 0.255 1.137 0.255 1.472 0 2.67-1.198 2.67-2.67s-1.198-2.67-2.67-2.67zM17.176 3.381c-0.392 0-0.711-0.319-0.711-0.711s0.319-0.711 0.711-0.711 0.711 0.319 0.711 0.711-0.319 0.711-0.711 0.711zM2.664 23.871c0-0.786 0.469-1.476 1.003-1.476s1.003 0.69 1.003 1.476c0 0.786-0.469 1.476-1.003 1.476s-1.003-0.69-1.003-1.476zM7.212 29.333c-1.293 0-2.482-0.784-3.255-2.043 1.498-0.17 2.672-1.638 2.672-3.419 0-1.741-1.123-3.183-2.574-3.405 0.778-1.171 1.93-1.898 3.157-1.898 2.292 0 4.157 2.414 4.157 5.382s-1.865 5.382-4.157 5.382zM16.451 28.637c-0.927 0.932-2.636 1.404-5.082 1.404-0.244 0-0.468-0.017-0.677-0.045 0.325-0.271 0.631-0.582 0.913-0.931 1.11-1.375 1.722-3.191 1.722-5.114s-0.611-3.738-1.722-5.114c-1.16-1.436-2.72-2.227-4.394-2.227-0.587 0-1.159 0.098-1.707 0.287 1.632-2.473 4.499-4.069 7.708-4.069 1.485 0 2.939 0.347 4.242 1.005v10.687c0 0.096 0 0.195 0.001 0.296 0.007 1.31 0.015 2.795-1.005 3.82zM26.387 12.986l0.002 11.534c0 0.096 0 0.195 0.001 0.296 0.007 1.31 0.015 2.795-1.005 3.82-0.927 0.932-2.637 1.404-5.082 1.404h-2.485c0.007-0.007 0.015-0.015 0.022-0.022 1.594-1.603 1.583-3.775 1.575-5.212-0-0.098-0.001-0.193-0.001-0.286v-11.534c0-1.922 1.564-3.486 3.486-3.486s3.486 1.564 3.486 3.486zM28.625 3.381c-0.392 0-0.711-0.319-0.711-0.711s0.319-0.711 0.711-0.711c0.392 0 0.711 0.319 0.711 0.711s-0.319 0.711-0.711 0.711z"></path>
    </symbol>
  </defs>
</svg>