<svg xmlns="http://www.w3.org/2000/svg">
  <defs>

<!-- header -->
    <symbol id="icon-instagram" viewBox="0 0 32 32">
      <path d="M16 2.881c4.275 0 4.781 0.019 6.462 0.094 1.563 0.069 2.406 0.331 2.969 0.55 0.744 0.288 1.281 0.638 1.837 1.194 0.563 0.563 0.906 1.094 1.2 1.838 0.219 0.563 0.481 1.412 0.55 2.969 0.075 1.688 0.094 2.194 0.094 6.463s-0.019 4.781-0.094 6.463c-0.069 1.563-0.331 2.406-0.55 2.969-0.288 0.744-0.637 1.281-1.194 1.837-0.563 0.563-1.094 0.906-1.837 1.2-0.563 0.219-1.413 0.481-2.969 0.55-1.688 0.075-2.194 0.094-6.463 0.094s-4.781-0.019-6.463-0.094c-1.563-0.069-2.406-0.331-2.969-0.55-0.744-0.288-1.281-0.637-1.838-1.194-0.563-0.563-0.906-1.094-1.2-1.837-0.219-0.563-0.481-1.413-0.55-2.969-0.075-1.688-0.094-2.194-0.094-6.463s0.019-4.781 0.094-6.463c0.069-1.563 0.331-2.406 0.55-2.969 0.288-0.744 0.638-1.281 1.194-1.838 0.563-0.563 1.094-0.906 1.838-1.2 0.563-0.219 1.412-0.481 2.969-0.55 1.681-0.075 2.188-0.094 6.463-0.094zM16 0c-4.344 0-4.887 0.019-6.594 0.094-1.7 0.075-2.869 0.35-3.881 0.744-1.056 0.412-1.95 0.956-2.837 1.85-0.894 0.888-1.438 1.781-1.85 2.831-0.394 1.019-0.669 2.181-0.744 3.881-0.075 1.713-0.094 2.256-0.094 6.6s0.019 4.887 0.094 6.594c0.075 1.7 0.35 2.869 0.744 3.881 0.413 1.056 0.956 1.95 1.85 2.837 0.887 0.887 1.781 1.438 2.831 1.844 1.019 0.394 2.181 0.669 3.881 0.744 1.706 0.075 2.25 0.094 6.594 0.094s4.888-0.019 6.594-0.094c1.7-0.075 2.869-0.35 3.881-0.744 1.050-0.406 1.944-0.956 2.831-1.844s1.438-1.781 1.844-2.831c0.394-1.019 0.669-2.181 0.744-3.881 0.075-1.706 0.094-2.25 0.094-6.594s-0.019-4.887-0.094-6.594c-0.075-1.7-0.35-2.869-0.744-3.881-0.394-1.063-0.938-1.956-1.831-2.844-0.887-0.887-1.781-1.438-2.831-1.844-1.019-0.394-2.181-0.669-3.881-0.744-1.712-0.081-2.256-0.1-6.6-0.1v0z"></path>
      <path d="M16 7.781c-4.537 0-8.219 3.681-8.219 8.219s3.681 8.219 8.219 8.219 8.219-3.681 8.219-8.219c0-4.537-3.681-8.219-8.219-8.219zM16 21.331c-2.944 0-5.331-2.387-5.331-5.331s2.387-5.331 5.331-5.331c2.944 0 5.331 2.387 5.331 5.331s-2.387 5.331-5.331 5.331z"></path>
      <path d="M26.462 7.456c0 1.060-0.859 1.919-1.919 1.919s-1.919-0.859-1.919-1.919c0-1.060 0.859-1.919 1.919-1.919s1.919 0.859 1.919 1.919z"></path>
    </symbol>
    <symbol id="icon-phone" viewBox="0 0 32 32">
      <path d="M22 20c-2 2-2 4-4 4s-4-2-6-4-4-4-4-6 2-2 4-4-4-8-6-8-6 6-6 6c0 4 4.109 12.109 8 16s12 8 16 8c0 0 6-4 6-6s-6-8-8-6z"></path>
    </symbol>
    <symbol id="icon-snail" viewBox="0 0 32 32">
      <path d="M28.625 0c-1.472 0-2.67 1.198-2.67 2.67 0 0.344 0.066 0.673 0.185 0.975-1.034 1.193-1.707 2.801-2.016 4.036-0.394-0.091-0.803-0.14-1.224-0.14s-0.83 0.050-1.224 0.14c-0.309-1.236-0.982-2.844-2.016-4.036 0.119-0.302 0.185-0.631 0.185-0.975-0-1.472-1.198-2.67-2.67-2.67s-2.67 1.198-2.67 2.67 1.198 2.67 2.67 2.67c0.406 0 0.792-0.092 1.137-0.255 0.84 1.049 1.365 2.519 1.539 3.392-1.115 0.756-1.935 1.916-2.251 3.266-1.378-0.575-2.87-0.875-4.387-0.875-5.304 0-9.843 3.619-10.873 8.634-0.411 0.648-0.73 1.377-0.943 2.164-0.432 0.597-0.693 1.366-0.693 2.205 0 0.797 0.236 1.53 0.63 2.114 0.748 3.134 3.14 5.306 5.878 5.306 0.33 0 0.656-0.031 0.976-0.092 0.712 0.366 1.721 0.8 3.182 0.8h8.933c3.028 0 5.144-0.648 6.471-1.982 1.594-1.603 1.583-3.775 1.575-5.212-0-0.098-0.001-0.193-0.001-0.286l-0.002-11.534c0-1.873-0.951-3.529-2.396-4.509 0.174-0.873 0.699-2.343 1.539-3.392 0.345 0.163 0.73 0.255 1.137 0.255 1.472 0 2.67-1.198 2.67-2.67s-1.198-2.67-2.67-2.67zM17.176 3.381c-0.392 0-0.711-0.319-0.711-0.711s0.319-0.711 0.711-0.711 0.711 0.319 0.711 0.711-0.319 0.711-0.711 0.711zM2.664 23.871c0-0.786 0.469-1.476 1.003-1.476s1.003 0.69 1.003 1.476c0 0.786-0.469 1.476-1.003 1.476s-1.003-0.69-1.003-1.476zM7.212 29.333c-1.293 0-2.482-0.784-3.255-2.043 1.498-0.17 2.672-1.638 2.672-3.419 0-1.741-1.123-3.183-2.574-3.405 0.778-1.171 1.93-1.898 3.157-1.898 2.292 0 4.157 2.414 4.157 5.382s-1.865 5.382-4.157 5.382zM16.451 28.637c-0.927 0.932-2.636 1.404-5.082 1.404-0.244 0-0.468-0.017-0.677-0.045 0.325-0.271 0.631-0.582 0.913-0.931 1.11-1.375 1.722-3.191 1.722-5.114s-0.611-3.738-1.722-5.114c-1.16-1.436-2.72-2.227-4.394-2.227-0.587 0-1.159 0.098-1.707 0.287 1.632-2.473 4.499-4.069 7.708-4.069 1.485 0 2.939 0.347 4.242 1.005v10.687c0 0.096 0 0.195 0.001 0.296 0.007 1.31 0.015 2.795-1.005 3.82zM26.387 12.986l0.002 11.534c0 0.096 0 0.195 0.001 0.296 0.007 1.31 0.015 2.795-1.005 3.82-0.927 0.932-2.637 1.404-5.082 1.404h-2.485c0.007-0.007 0.015-0.015 0.022-0.022 1.594-1.603 1.583-3.775 1.575-5.212-0-0.098-0.001-0.193-0.001-0.286v-11.534c0-1.922 1.564-3.486 3.486-3.486s3.486 1.564 3.486 3.486zM28.625 3.381c-0.392 0-0.711-0.319-0.711-0.711s0.319-0.711 0.711-0.711c0.392 0 0.711 0.319 0.711 0.711s-0.319 0.711-0.711 0.711z"></path>
    </symbol>
    <symbol id="icon-healthcare-1" viewBox="0 0 32 32">
      <path fill="#fff" style="fill: var(--color1, #fff)" d="M5.333 0h21.333c2.946 0 5.333 2.388 5.333 5.333v21.333c0 2.946-2.388 5.333-5.333 5.333h-21.333c-2.946 0-5.333-2.388-5.333-5.333v-21.333c0-2.946 2.388-5.333 5.333-5.333z"></path>
      <path fill="#f2c4bb" style="fill: var(--color2, #f2c4bb)" d="M27.733 12.267c0-0.002 0-0.003 0-0.005 0-3.826-3.102-6.928-6.928-6.928-1.867 0-3.562 0.739-4.807 1.939l0.002-0.002c-1.242-1.191-2.932-1.925-4.792-1.925-3.827 0-6.929 3.102-6.929 6.929 0 1.879 0.748 3.583 1.962 4.831l-0.002-0.002h-0.005l9.001 9.242c0.194 0.199 0.464 0.322 0.763 0.322s0.569-0.123 0.762-0.322l0-0 8.999-9.242c1.22-1.245 1.973-2.951 1.973-4.834 0-0.001 0-0.003 0-0.004v0z"></path>
      <path fill="#f28080" style="fill: var(--color3, #f28080)" d="M16 27.467c-0.001 0-0.003 0-0.005 0-0.503 0-0.96-0.201-1.293-0.527l0 0c-0.013-0.012-0.027-0.025-0.039-0.038l-9.002-9.239c-0.019-0.019-0.036-0.039-0.053-0.060-1.329-1.386-2.147-3.27-2.147-5.345 0-4.268 3.46-7.729 7.729-7.729 1.826 0 3.503 0.633 4.826 1.692l-0.015-0.012c1.306-1.043 2.98-1.673 4.803-1.673 4.269 0 7.729 3.46 7.729 7.729 0 2.072-0.815 3.954-2.143 5.342l0.003-0.003c-0.017 0.022-0.035 0.041-0.053 0.059l-0 0-9.001 9.239q-0.019 0.020-0.040 0.038c-0.333 0.325-0.789 0.526-1.292 0.526-0.002 0-0.004 0-0.006 0h0zM15.78 25.757c0.010 0.009 0.020 0.019 0.030 0.029 0.048 0.050 0.115 0.081 0.19 0.081s0.142-0.031 0.19-0.081l0-0 0.030-0.029 8.919-9.154c0.016-0.020 0.033-0.038 0.050-0.057 1.073-1.103 1.735-2.611 1.735-4.273 0-3.385-2.744-6.129-6.129-6.129-1.646 0-3.141 0.649-4.242 1.706l0.002-0.002c-0.144 0.138-0.339 0.223-0.555 0.223s-0.411-0.085-0.555-0.224l0 0c-1.099-1.054-2.594-1.704-4.24-1.704-3.385 0-6.129 2.744-6.129 6.129 0 1.662 0.662 3.17 1.737 4.275l-0.001-0.001c0.018 0.018 0.035 0.037 0.051 0.057z"></path>
      <path fill="#bf95bc" style="fill: var(--color4, #bf95bc)" d="M16.764 27.147c-0 0-0 0-0 0-0.442 0-0.8-0.358-0.8-0.8 0-0.217 0.087-0.414 0.227-0.559l-0 0 8.948-9.186c0.016-0.020 0.033-0.038 0.050-0.057 1.079-1.099 1.745-2.607 1.745-4.271 0-0.003 0-0.006 0-0.009v0c0-0.442 0.358-0.8 0.8-0.8s0.8 0.358 0.8 0.8v0c0 0.004 0 0.008 0 0.013 0 2.068-0.816 3.945-2.144 5.327l0.002-0.003c-0.017 0.022-0.035 0.041-0.053 0.059l-0 0-9.001 9.239c-0.145 0.15-0.348 0.244-0.573 0.244h-0z"></path>
      <path fill="#8d9cf4" style="fill: var(--color5, #8d9cf4)" d="M18.133 21.067c-0.021 0-0.043 0-0.065-0.003-0.353-0.029-0.639-0.284-0.715-0.619l-0.001-0.005-1.353-6.085-1.353 6.085c-0.082 0.361-0.401 0.627-0.781 0.627-0.335 0-0.622-0.206-0.741-0.497l-0.002-0.005-1.568-3.921-1.29 1.934c-0.146 0.216-0.389 0.356-0.666 0.356h-5.333c-0.442 0-0.8-0.358-0.8-0.8s0.358-0.8 0.8-0.8v0h4.907l1.896-2.844c0.146-0.216 0.389-0.356 0.666-0.356 0.335 0 0.622 0.206 0.741 0.498l0.002 0.005 1.173 2.929 1.572-7.071c0.083-0.361 0.401-0.626 0.781-0.626s0.698 0.265 0.78 0.62l0.001 0.005 1.572 7.071 1.173-2.929c0.121-0.297 0.408-0.503 0.743-0.503 0.276 0 0.52 0.14 0.664 0.354l0.002 0.003 1.889 2.844h4.907c0.442 0 0.8 0.358 0.8 0.8s-0.358 0.8-0.8 0.8v0h-5.333c-0.276-0-0.52-0.14-0.664-0.353l-0.002-0.003-1.29-1.934-1.568 3.921c-0.121 0.297-0.408 0.503-0.743 0.503-0 0-0 0-0 0v0z"></path>
    </symbol>
    <symbol id="icon-healthcare-2" viewBox="0 0 32 32">
      <path fill="#e0e1e2" style="fill: var(--color1, #e0e1e2)" d="M16.654 24.642s-7.58-1.815-7.872-14.35c-0.407 0.256-0.654 0.479-0.654 0.642 0.287 12.547 7.872 14.363 7.872 14.363s1.889-0.454 3.82-2.555c-1.681 1.544-3.166 1.901-3.166 1.901z"></path>
      <path fill="#e0e1e2" style="fill: var(--color1, #e0e1e2)" d="M15.994 23.476c-0.155-0.066-0.347-0.156-0.563-0.275-0.78-0.426-1.509-1.008-2.168-1.73-0.93-1.021-1.686-2.293-2.245-3.784-0.649-1.733-1.035-3.765-1.146-6.049 0.334-0.195 0.937-0.507 1.998-0.973 1.225-0.537 2.583-1.066 3.506-1.416 0.186-0.073 0.402-0.116 0.627-0.116 0.224 0 0.438 0.042 0.635 0.118l-0.012-0.004c0.923 0.348 2.279 0.874 3.504 1.41 1.046 0.457 1.647 0.768 1.984 0.962-0.161 2.293-0.576 4.332-1.236 6.071-0.571 1.499-1.325 2.777-2.242 3.799-0.645 0.72-1.355 1.299-2.109 1.72-0.204 0.114-0.386 0.201-0.534 0.265z"></path>
      <path fill="#1682fc" style="fill: var(--color2, #1682fc)" d="M18.88 13.774c0.129 0 0.234 0.105 0.234 0.234v0 1.92c0 0.129-0.105 0.234-0.234 0.234v0h-1.686v1.686c0 0.129-0.105 0.234-0.234 0.234v0h-1.92c-0.129 0-0.234-0.105-0.234-0.234v0-1.686h-1.686c-0.129 0-0.234-0.105-0.234-0.234v0-1.92c0-0.129 0.105-0.234 0.234-0.234v0h1.686v-1.686c0-0.129 0.105-0.234 0.234-0.234v0h1.92c0.129 0 0.234 0.105 0.234 0.234v0 1.686z"></path>
      <path fill="#2e3a58" style="fill: var(--color3, #2e3a58)" d="M16 25.53c-0.001 0-0.002 0-0.003 0-0.018 0-0.036-0.002-0.053-0.007l0.002 0c-0.020-0.005-0.509-0.125-1.241-0.5-0.67-0.342-1.681-0.974-2.702-2.043-1.143-1.196-2.065-2.685-2.741-4.425-0.841-2.165-1.302-4.728-1.367-7.616v-0.006c0-0.312 0.318-0.748 2.626-1.801 1.378-0.629 3.027-1.275 4.166-1.706 0.391-0.153 0.845-0.242 1.318-0.242 0.471 0 0.921 0.088 1.336 0.247l-0.025-0.009c1.144 0.432 2.799 1.079 4.179 1.708 0.768 0.35 1.371 0.659 1.79 0.916 0.588 0.362 0.835 0.631 0.823 0.898-0.128 2.9-0.626 5.47-1.481 7.636-0.687 1.742-1.605 3.23-2.727 4.421-0.554 0.588-1.461 1.417-2.638 2.031-0.712 0.37-1.185 0.487-1.205 0.492-0.015 0.004-0.033 0.006-0.051 0.006-0.001 0-0.003 0-0.004-0h0zM8.362 10.941c0.066 2.819 0.512 5.317 1.327 7.422 0.649 1.681 1.534 3.117 2.63 4.271 0.537 0.565 1.419 1.364 2.572 1.961 0.556 0.286 0.965 0.417 1.108 0.459 0.139-0.041 0.534-0.169 1.069-0.451 0.618-0.325 1.555-0.926 2.512-1.948 1.075-1.149 1.957-2.587 2.618-4.271 0.829-2.11 1.313-4.616 1.439-7.451-0.011-0.028-0.101-0.195-0.712-0.554-0.417-0.247-1.004-0.542-1.741-0.874-1.35-0.61-2.941-1.23-4.037-1.644-0.34-0.132-0.733-0.209-1.145-0.209-0.414 0-0.811 0.078-1.175 0.219l0.022-0.008c-1.096 0.414-2.686 1.037-4.035 1.647-0.737 0.334-1.322 0.629-1.741 0.876-0.612 0.361-0.702 0.528-0.713 0.554z"></path>
      <path fill="#1682fc" style="fill: var(--color2, #1682fc)" d="M15.994 23.554c-0 0-0.001 0-0.001 0-0.010 0-0.020-0.002-0.029-0.006l0 0c-0.14-0.059-0.286-0.128-0.429-0.201-0.025-0.013-0.042-0.039-0.042-0.069 0-0.043 0.035-0.078 0.078-0.078 0.013 0 0.025 0.003 0.036 0.009l-0-0c0.13 0.067 0.261 0.128 0.387 0.183 0.126-0.055 0.256-0.119 0.386-0.187 0.011-0.006 0.023-0.010 0.037-0.010 0.029 0 0.055 0.016 0.067 0.040l0 0c0.006 0.011 0.010 0.024 0.010 0.038 0 0.029-0.016 0.055-0.040 0.068l-0 0c-0.144 0.076-0.287 0.147-0.428 0.208-0.009 0.004-0.020 0.006-0.031 0.006h-0z"></path>
      <path fill="#1682fc" style="fill: var(--color2, #1682fc)" d="M14.821 22.909c-0 0-0 0-0.001 0-0.016 0-0.031-0.005-0.043-0.014l0 0c-0.267-0.182-0.496-0.356-0.715-0.541l0.013 0.010c-0.017-0.014-0.028-0.035-0.028-0.059 0-0.019 0.007-0.037 0.019-0.050l-0 0c0.015-0.017 0.037-0.028 0.061-0.028 0.019 0 0.036 0.007 0.050 0.018l-0-0c0.204 0.174 0.428 0.345 0.662 0.504l0.027 0.017c0.021 0.014 0.034 0.038 0.034 0.065 0 0.017-0.005 0.032-0.014 0.045l0-0c-0.014 0.021-0.037 0.034-0.064 0.034-0 0-0 0-0 0v0zM13.488 21.788c-0.022-0-0.042-0.009-0.056-0.023v0c-0.076-0.078-0.153-0.159-0.228-0.24-0.122-0.133-0.242-0.273-0.357-0.415-0.011-0.013-0.017-0.030-0.017-0.049 0-0.024 0.011-0.046 0.028-0.060l0-0c0.013-0.011 0.031-0.018 0.050-0.018 0.024 0 0.046 0.011 0.061 0.029l0 0c0.114 0.139 0.231 0.278 0.351 0.409 0.073 0.080 0.148 0.159 0.223 0.236 0.014 0.014 0.022 0.033 0.022 0.055s-0.009 0.042-0.024 0.056l-0 0c-0.013 0.014-0.031 0.022-0.051 0.022-0.001 0-0.002 0-0.002-0h0zM12.386 20.439c-0 0-0 0-0 0-0.027 0-0.050-0.014-0.064-0.034l-0-0c-0.162-0.237-0.32-0.487-0.467-0.743-0.009-0.013-0.015-0.029-0.015-0.046 0-0.043 0.035-0.078 0.078-0.078 0.031 0 0.059 0.019 0.071 0.045l0 0c0.147 0.253 0.301 0.5 0.46 0.734 0.008 0.012 0.013 0.027 0.013 0.044 0 0.043-0.035 0.078-0.077 0.078h-0zM11.515 18.93c-0.031-0.001-0.057-0.019-0.070-0.045l-0-0c-0.125-0.258-0.245-0.528-0.356-0.801-0.004-0.009-0.006-0.019-0.006-0.030 0-0.032 0.020-0.060 0.048-0.071l0.001-0c0.009-0.004 0.019-0.006 0.030-0.006 0.033 0 0.061 0.020 0.073 0.047l0 0c0.109 0.272 0.228 0.537 0.351 0.793 0.005 0.010 0.008 0.022 0.008 0.034 0 0.031-0.018 0.057-0.043 0.070l-0 0c-0.010 0.005-0.022 0.007-0.034 0.008h-0zM10.857 17.314c-0.033-0-0.062-0.021-0.073-0.051l-0-0.001c-0.092-0.272-0.178-0.554-0.258-0.838-0.002-0.007-0.003-0.014-0.003-0.022 0-0.035 0.023-0.065 0.056-0.075l0.001-0c0.006-0.001 0.012-0.002 0.019-0.002 0.036 0 0.067 0.024 0.077 0.056l0 0.001c0.078 0.283 0.165 0.56 0.256 0.829 0.003 0.008 0.004 0.017 0.004 0.026 0 0.034-0.022 0.063-0.052 0.074l-0.001 0c-0.007 0.002-0.014 0.003-0.022 0.003-0.002 0-0.003-0-0.005-0h0zM10.387 15.636c-0 0-0 0-0 0-0.037 0-0.068-0.026-0.076-0.060l-0-0.001c-0.064-0.279-0.122-0.568-0.175-0.859-0.002-0.006-0.003-0.014-0.003-0.021 0-0.043 0.035-0.078 0.078-0.078 0.041 0 0.075 0.032 0.078 0.072v0c0.053 0.287 0.111 0.574 0.173 0.851 0.002 0.006 0.002 0.012 0.002 0.019 0 0.036-0.025 0.067-0.060 0.075l-0.001 0zM10.075 13.921c-0 0-0 0-0.001 0-0.039 0-0.071-0.029-0.076-0.067l-0-0c-0.041-0.284-0.075-0.576-0.105-0.869-0.001-0.005-0.002-0.010-0.002-0.016 0-0.043 0.035-0.078 0.078-0.078s0.078 0.035 0.078 0.078v0c0.030 0.29 0.064 0.581 0.105 0.863 0 0.003 0 0.006 0 0.009 0 0.040-0.029 0.073-0.067 0.079l-0 0z"></path>
      <path fill="#1682fc" style="fill: var(--color2, #1682fc)" d="M9.898 12.183c-0 0-0 0-0 0-0.041 0-0.074-0.031-0.078-0.072l-0-0c-0.011-0.156-0.019-0.314-0.027-0.47-0-0.002-0-0.003-0-0.005 0-0.028 0.015-0.053 0.037-0.067l0-0c0.122-0.069 0.261-0.145 0.415-0.225 0.011-0.006 0.023-0.009 0.036-0.009 0.030 0 0.055 0.017 0.068 0.042l0 0c0.005 0.010 0.009 0.023 0.009 0.036 0 0.030-0.017 0.056-0.041 0.069l-0 0c-0.136 0.070-0.258 0.137-0.367 0.2 0.008 0.139 0.016 0.279 0.025 0.418 0 0.001 0 0.003 0 0.005 0 0.041-0.032 0.075-0.073 0.078h-0z"></path>
      <path fill="#1682fc" style="fill: var(--color2, #1682fc)" d="M11.134 11.075c-0.031-0-0.058-0.019-0.072-0.045l-0-0c-0.004-0.010-0.007-0.021-0.007-0.033 0-0.031 0.018-0.058 0.044-0.070l0-0c0.228-0.106 0.476-0.219 0.738-0.332l0.13-0.056c0.009-0.004 0.020-0.007 0.031-0.007 0.032 0 0.059 0.019 0.071 0.047l0 0.001c0.004 0.009 0.006 0.020 0.006 0.031 0 0.032-0.019 0.060-0.046 0.072l-0.001 0-0.13 0.055c-0.261 0.116-0.507 0.226-0.734 0.331-0.009 0.005-0.019 0.008-0.031 0.008-0.001 0-0.001 0-0.002-0h0zM20.852 11.061c-0.012-0-0.023-0.003-0.033-0.008l0 0c-0.223-0.103-0.465-0.212-0.72-0.323l-0.145-0.062c-0.028-0.012-0.047-0.040-0.047-0.072 0-0.043 0.035-0.078 0.078-0.078 0.011 0 0.022 0.002 0.032 0.007l-0-0 0.145 0.062c0.256 0.112 0.5 0.222 0.723 0.325 0.027 0.013 0.045 0.040 0.045 0.071 0 0.012-0.003 0.024-0.008 0.034l0-0c-0.012 0.027-0.039 0.045-0.070 0.045-0 0-0 0-0 0h0zM12.872 10.316c-0 0-0 0-0 0-0.032 0-0.059-0.019-0.071-0.046l-0-0.001c-0.003-0.009-0.005-0.019-0.005-0.029 0-0.033 0.019-0.061 0.047-0.074l0.001-0c0.279-0.116 0.576-0.236 0.88-0.357 0.009-0.004 0.018-0.006 0.029-0.006 0.043 0 0.078 0.035 0.078 0.078 0 0.033-0.020 0.061-0.049 0.072l-0.001 0c-0.304 0.122-0.599 0.242-0.877 0.357-0.009 0.003-0.020 0.005-0.031 0.005v0zM19.111 10.304c-0.011-0-0.021-0.002-0.030-0.005l0.001 0c-0.279-0.116-0.574-0.236-0.879-0.356-0.029-0.012-0.049-0.040-0.049-0.073 0-0.043 0.035-0.078 0.078-0.078 0.010 0 0.020 0.002 0.029 0.006l-0.001-0c0.304 0.12 0.601 0.24 0.88 0.356 0.029 0.011 0.048 0.039 0.048 0.071 0 0.011-0.002 0.021-0.006 0.031l0-0.001c-0.011 0.029-0.038 0.048-0.070 0.048-0.001 0-0.001 0-0.002-0h0zM14.634 9.613c-0 0-0.001 0-0.002 0-0.043 0-0.078-0.035-0.078-0.078 0-0.034 0.021-0.062 0.051-0.073l0.001-0 0.741-0.284c0.052-0.019 0.101-0.036 0.153-0.050 0.007-0.002 0.014-0.003 0.022-0.003 0.043 0 0.078 0.035 0.078 0.078 0 0.035-0.023 0.065-0.056 0.075l-0.001 0q-0.072 0.022-0.14 0.047c-0.248 0.094-0.498 0.189-0.741 0.284-0.008 0.003-0.018 0.005-0.028 0.005h-0zM17.349 9.603c-0 0-0.001 0-0.001 0-0.010 0-0.019-0.002-0.027-0.006l0 0-0.723-0.275c-0.042-0.017-0.095-0.035-0.149-0.049l-0.010-0.002c-0.033-0.009-0.057-0.040-0.057-0.075 0-0.007 0.001-0.014 0.003-0.021l-0 0.001c0.008-0.034 0.038-0.058 0.073-0.058 0.008 0 0.016 0.001 0.023 0.004l-0.001-0c0.059 0.016 0.117 0.034 0.173 0.055l0.724 0.276c0.030 0.011 0.051 0.040 0.051 0.073 0 0.043-0.035 0.078-0.078 0.078-0.001 0-0.001 0-0.002-0h0z"></path>
      <path fill="#1682fc" style="fill: var(--color2, #1682fc)" d="M22.077 12.165h-0.006c-0.040-0.003-0.072-0.037-0.072-0.078 0-0.002 0-0.005 0-0.007l-0 0q0.019-0.206 0.033-0.417c-0.108-0.061-0.231-0.128-0.365-0.198-0.021-0.014-0.034-0.038-0.034-0.064 0-0.043 0.035-0.078 0.078-0.078 0.010 0 0.020 0.002 0.028 0.005l-0.001-0c0.155 0.080 0.293 0.155 0.415 0.225 0.023 0.014 0.038 0.039 0.038 0.067 0 0.002-0 0.005-0 0.007l0-0c-0.011 0.156-0.022 0.314-0.036 0.468-0.003 0.039-0.036 0.070-0.076 0.070-0.001 0-0.001 0-0.002-0h0z"></path>
      <path fill="#1682fc" style="fill: var(--color2, #1682fc)" d="M17.264 22.815c-0.026-0-0.049-0.012-0.064-0.031l-0-0c-0.009-0.013-0.015-0.028-0.015-0.045 0-0.026 0.013-0.050 0.033-0.064l0-0c0.285-0.21 0.534-0.417 0.772-0.637l-0.005 0.005c0.014-0.013 0.032-0.021 0.052-0.021 0.023 0 0.043 0.010 0.057 0.026l0 0c0.013 0.014 0.021 0.032 0.021 0.053 0 0.022-0.009 0.042-0.024 0.056l-0 0c-0.237 0.221-0.492 0.433-0.759 0.628l-0.023 0.016c-0.013 0.009-0.028 0.014-0.045 0.014h-0zM18.735 21.457c-0.020-0-0.038-0.008-0.052-0.020l0 0c-0.016-0.014-0.026-0.035-0.026-0.059 0-0.019 0.007-0.037 0.019-0.051l-0 0c0.214-0.245 0.421-0.509 0.617-0.784 0.014-0.019 0.037-0.032 0.063-0.032 0.017 0 0.033 0.005 0.045 0.015l-0-0c0.020 0.014 0.033 0.037 0.033 0.063 0 0.017-0.005 0.032-0.015 0.045l0-0c-0.198 0.278-0.407 0.546-0.624 0.795-0.014 0.017-0.035 0.028-0.059 0.028-0 0-0 0-0 0v0zM19.899 19.824c-0.014-0-0.028-0.004-0.040-0.010l0 0c-0.023-0.014-0.039-0.039-0.039-0.068 0-0.015 0.004-0.028 0.011-0.040l-0 0c0.165-0.281 0.323-0.576 0.47-0.879 0.012-0.029 0.040-0.050 0.073-0.050 0.043 0 0.078 0.035 0.078 0.078 0 0.014-0.004 0.027-0.010 0.039l0-0c-0.148 0.308-0.309 0.607-0.476 0.891-0.014 0.023-0.038 0.037-0.066 0.037-0 0-0.001 0-0.001 0h0zM20.778 18.023c-0.011-0.001-0.021-0.003-0.030-0.006l0.001 0c-0.029-0.012-0.048-0.039-0.048-0.071 0-0.011 0.002-0.021 0.006-0.031l-0 0 0.098-0.253c0.084-0.223 0.165-0.453 0.242-0.685 0.011-0.032 0.041-0.054 0.075-0.054 0.009 0 0.017 0.001 0.025 0.004l-0.001-0c0.031 0.011 0.052 0.040 0.052 0.074 0 0.009-0.001 0.017-0.004 0.025l0-0.001c-0.076 0.234-0.159 0.468-0.245 0.692-0.031 0.086-0.066 0.172-0.1 0.256-0.011 0.029-0.038 0.050-0.071 0.050-0 0-0.001 0-0.001 0h0zM21.407 16.117h-0.020c-0.033-0.009-0.057-0.040-0.057-0.075 0-0.007 0.001-0.014 0.003-0.021l-0 0.001c0.084-0.315 0.162-0.642 0.233-0.973 0.008-0.035 0.039-0.061 0.076-0.061 0.006 0 0.012 0.001 0.018 0.002l-0.001-0c0.035 0.007 0.061 0.038 0.061 0.075 0 0.006-0.001 0.012-0.002 0.018l0-0.001c-0.072 0.332-0.15 0.662-0.236 0.979-0.009 0.033-0.039 0.056-0.074 0.056-0 0-0.001 0-0.001 0h0zM21.829 14.156h-0.012c-0.037-0.005-0.065-0.036-0.065-0.074 0-0.005 0.001-0.010 0.002-0.015l-0 0c0.053-0.323 0.101-0.656 0.144-0.99 0.005-0.039 0.038-0.069 0.078-0.069 0.003 0 0.006 0 0.009 0l-0-0c0.039 0.005 0.069 0.038 0.069 0.078 0 0.003-0 0.007-0.001 0.010l0-0c-0.042 0.337-0.091 0.671-0.145 0.996-0.006 0.037-0.038 0.064-0.075 0.064-0 0-0.001 0-0.001 0h0z"></path>
    </symbol>
    <symbol id="icon-healthcare-happy" viewBox="0 0 16 32">
      <path d="M5.572 30.573c0 0.788 0.639 1.427 1.427 1.427s1.427-0.639 1.427-1.427v-4.521c-1.162-0.014-2.108-0.108-2.854-0.227v4.749z"></path>
      <path d="M9.049 30.573c0 0.788 0.639 1.427 1.427 1.427s1.427-0.639 1.427-1.427v-4.749c-0.746 0.119-1.692 0.213-2.854 0.227v4.521z"></path>
      <path d="M5.359 13.15c-0.673 3.005-1.779 8.441-1.779 11.721 0 0 1.587 0.76 5.158 0.76s5.158-0.76 5.158-0.76c0-2.576-0.682-6.483-1.302-9.497-0.632-0.146-1.459-0.587-2.829-1.489-1.166-0.767-2.262-1.578-2.308-1.612-0.614-0.456-0.744-1.326-0.288-1.94 0.261-0.351 0.678-0.561 1.115-0.561 0.299 0 0.585 0.094 0.825 0.273 0.77 0.571 1.592 1.141 2.305 1.605l0.225 0.645c-0.84-0.527-1.881-1.242-2.782-1.91-0.427-0.317-1.032-0.228-1.349 0.2s-0.228 1.032 0.2 1.349c0.045 0.034 1.125 0.833 2.289 1.599 1.476 0.971 2.342 1.421 2.954 1.471 0.038 0.003 0.075 0.005 0.111 0.005 0.26 0 0.473-0.078 0.673-0.224 0.322-0.236 0.586-0.72 0.361-1.371-0-0-0-0.001-0-0.001-0.791-2.29-1.998-3.785-3.539-4.424-0.544 0.286-1.162 0.449-1.819 0.449s-1.275-0.164-1.819-0.45c-0.393 0.163-0.765 0.379-1.114 0.652l0.176-1.336c-0.42-0.414-0.744-0.922-0.945-1.489-0.458 0.019-0.853 0.364-0.914 0.836l-0.78 5.935c-0.065 0.491 0.253 0.95 0.734 1.064 0.181 0.043 0.363 0.031 0.529-0.024 0.113-0.533 0.221-1.030 0.321-1.476h0.435z"></path>
      <path d="M12.636 5.991c-0.084 0.681-0.344 1.307-0.732 1.835 0.269 0.902 0.536 1.962 1.29 2.443 1.684 1.076 2.827-0.366 2.255-0.2s-1.373 0.002-1.841-2.143c-0.207-0.95-0.559-1.555-0.973-1.935z"></path>
      <path d="M8.737 9.015c1.938 0 3.509-1.571 3.509-3.509s-1.571-3.509-3.509-3.509-3.509 1.571-3.509 3.509 1.571 3.509 3.509 3.509zM10.784 6.715c-0.424 0.687-1.181 1.147-2.046 1.147s-1.622-0.46-2.046-1.147h4.092z"></path>
      <path d="M2.6 0.138c-0.728 0.395-0.648 1.077-0.648 1.077s-0.528-0.438-1.256-0.043c-0.728 0.395-1.963 2.661 2.897 3.067 2.307-4.297-0.266-4.496-0.994-4.1z"></path>
    </symbol>
    <symbol id="icon-healthcare-shield" viewBox="0 0 32 32">
      <path d="M15.999 24.097c-4.386 0-7.954-3.568-7.954-7.954s3.568-7.953 7.954-7.953c4.385 0 7.953 3.568 7.953 7.953s-3.568 7.954-7.953 7.954zM15.999 8.94c-3.972 0-7.204 3.232-7.204 7.204s3.232 7.204 7.204 7.204c3.972 0 7.204-3.231 7.204-7.204s-3.232-7.204-7.204-7.204z"></path>
      <path d="M15.999 21.71c-1.042 0-1.889-0.848-1.889-1.889v-1.788h-1.788c-1.042 0-1.889-0.848-1.889-1.889s0.847-1.889 1.889-1.889h1.788v-1.788c0-1.042 0.847-1.889 1.889-1.889s1.889 0.847 1.889 1.889v1.788h1.788c1.042 0 1.889 0.847 1.889 1.889s-0.848 1.889-1.889 1.889h-1.788v1.788c0 1.042-0.848 1.889-1.889 1.889zM12.321 15.004c-1.499 0-1.5 2.278 0 2.278h2.163c0.207 0 0.375 0.168 0.375 0.375v2.163c0 1.499 2.279 1.499 2.279 0v-2.163c0-0.207 0.168-0.375 0.375-0.375h2.163c1.499 0 1.499-2.278 0-2.278l-2.163 0c-0.207 0-0.375-0.168-0.375-0.375v-2.163c0-1.5-2.279-1.499-2.279 0v2.163c0 0.207-0.168 0.375-0.375 0.375h-2.163z"></path>
      <path d="M15.999 31.999l-0.613-0.176c-5.197-1.649-9.017-4.459-11.047-8.124-0.973-1.756-1.53-3.733-1.53-5.424v-13.98c0-0.206 0.167-0.374 0.373-0.375l1.641-0.009c3.732-0.021 7.006-1.059 10.011-3.173 1.378-0.969 0.953-0.969 2.331 0 3.005 2.114 6.28 3.152 10.011 3.173l1.64 0.009c0.206 0.001 0.373 0.169 0.373 0.375v13.953c0.057 1.886-0.794 4.128-1.541 5.471-2.032 3.656-5.848 6.458-11.036 8.105l-0.613 0.176zM3.559 4.667v13.607c0 1.568 0.524 3.412 1.437 5.061 2.445 4.415 7.123 6.664 10.618 7.773 0.479 0.152 0.292 0.152 0.771 0 3.488-1.107 8.159-3.351 10.607-7.754 0.7-1.26 1.5-3.351 1.447-5.095l-0-13.591-1.267-0.007c-3.835-0.022-7.348-1.135-10.439-3.309l-0.733-0.516-0.733 0.516c-3.091 2.174-6.603 3.288-10.439 3.309l-1.268 0.007z"></path>
      <path d="M15.999 30.268c-0.038 0-0.076-0.006-0.114-0.018-11.619-3.688-11.429-11.908-11.426-11.991l-0-12.325c0-0.206 0.167-0.374 0.373-0.375 4.023-0.023 7.707-1.191 10.951-3.473 0.129-0.091 0.302-0.091 0.431 0 3.244 2.282 6.928 3.45 10.951 3.473 0.206 0.001 0.373 0.169 0.373 0.375v12.34c0.003 0.068 0.193 8.288-11.426 11.976-0.037 0.012-0.075 0.018-0.114 0.018zM5.209 6.305v11.97c-0.011 0.327-0.146 7.703 10.79 11.225 10.966-3.533 10.793-11.133 10.79-11.21l-0.001-11.984c-3.945-0.090-7.572-1.251-10.79-3.455-3.217 2.204-6.845 3.365-10.79 3.455z"></path>
    </symbol>
    <symbol id="icon-healthcare-heart" viewBox="0 0 32 32">
      <path d="M31.5 30.5c-3.63 0-5.439-2.334-7.355-4.806-1.979-2.553-4.026-5.194-8.146-5.194-3.412 0-5.4 1.812-7.109 3.884 0.184 0.233 0.366 0.466 0.544 0.697l0.087 0.112c1.633-2.015 3.402-3.693 6.477-3.693 3.63 0 5.439 2.334 7.354 4.806 1.979 2.553 4.026 5.194 8.145 5.194z"></path>
      <path d="M7.609 27.616c-0.184-0.233-0.365-0.466-0.544-0.697l-0.087-0.112c-1.634 2.015-3.402 3.693-6.478 3.693v1c3.413 0 5.4-1.812 7.109-3.884z"></path>
      <path d="M3.5 28.718c0.378-0.228 0.704-0.468 1.008-0.734l-0.008 0.007v-5.247c1.295 0.91 2.31 2.215 3.354 3.563 1.979 2.553 4.025 5.194 8.146 5.194 3.413 0 5.4-1.812 7.108-3.884-0.184-0.233-0.366-0.466-0.544-0.697l-0.087-0.112c-0.718 0.933-1.534 1.739-2.445 2.426l-0.032 0.023v-5.242c-0.295-0.258-0.622-0.497-0.969-0.707l-0.031-0.017v6.559c-0.73 0.356-1.583 0.585-2.483 0.635l-0.017 0.001v-7.965c-0.163-0.012-0.328-0.020-0.5-0.020s-0.338 0.007-0.5 0.018v7.962c-0.917-0.050-1.77-0.279-2.54-0.651l0.040 0.017v-6.564c-0.378 0.228-0.704 0.468-1.008 0.734l0.008-0.007v5.247c-1.294-0.91-2.31-2.215-3.354-3.563-1.979-2.553-4.026-5.194-8.146-5.194v1c0.027-0 0.058-0.001 0.090-0.001 1.057 0 2.058 0.241 2.951 0.672l-0.041-0.018z"></path>
      <path d="M31.5 20.5c-3.413 0-5.4 1.812-7.108 3.884 0.184 0.233 0.366 0.466 0.544 0.697l0.087 0.112c0.718-0.933 1.534-1.739 2.445-2.426l0.032-0.023v5.242c0.295 0.258 0.622 0.497 0.969 0.707l0.031 0.017v-6.557c0.851-0.412 1.851-0.653 2.907-0.653 0.033 0 0.065 0 0.098 0.001l-0.005-0z"></path>
      <path d="M6.84 6.95c-0.021-0.177-0.033-0.382-0.033-0.589 0-1.323 0.493-2.532 1.304-3.452l-0.005 0.006c0.744-0.867 1.841-1.413 3.066-1.413s2.322 0.546 3.061 1.408l0.005 0.005 1.392 1.543c0.094 0.097 0.225 0.158 0.371 0.158s0.277-0.060 0.371-0.157l0-0 1.392-1.543c0.744-0.867 1.841-1.413 3.066-1.413s2.322 0.546 3.061 1.408l0.005 0.005c0.807 0.914 1.299 2.123 1.299 3.446 0 0.208-0.012 0.412-0.036 0.614l0.002-0.024 0.995 0.1c0.024-0.207 0.038-0.446 0.038-0.689 0-1.582-0.591-3.027-1.563-4.125l0.006 0.007c-0.932-1.063-2.291-1.734-3.805-1.742h-0.002c-1.517 0.009-2.875 0.68-3.803 1.738l-0.005 0.006-1.021 1.132-1.021-1.132c-0.928-1.070-2.289-1.743-3.808-1.743s-2.88 0.673-3.802 1.737l-0.005 0.006c-0.967 1.091-1.558 2.536-1.558 4.118 0 0.243 0.014 0.482 0.041 0.717l-0.003-0.029z"></path>
      <path d="M6.7 9.643c1.427 2.362 3.213 4.352 5.308 5.96l0.050 0.037 3.642 2.76c0.083 0.063 0.188 0.102 0.302 0.102s0.219-0.038 0.303-0.102l-0.001 0.001 3.64-2.758c2.145-1.646 3.93-3.637 5.303-5.905l0.053-0.095c0.105-0.174 0.215-0.385 0.313-0.602l0.016-0.040h1.871v-1h-5.623l-0.896-3.138c-0.062-0.211-0.253-0.363-0.481-0.363-0.239 0-0.439 0.168-0.488 0.393l-0.001 0.003-1.183 5.519-1.873-4.122c-0.081-0.174-0.254-0.292-0.455-0.292-0.22 0-0.406 0.142-0.473 0.338l-0.001 0.004-1.085 3.25-0.982-2.291c-0.078-0.18-0.255-0.303-0.46-0.303-0.195 0-0.364 0.111-0.446 0.274l-0.001 0.003-1.053 2.106-0.55-1.105c-0.084-0.165-0.253-0.277-0.447-0.277-0.001 0-0.002 0-0.003 0h-6.5v1h1.872c0.113 0.257 0.223 0.468 0.344 0.671l-0.016-0.028zM10.691 9l0.861 1.723c0.093 0.153 0.258 0.254 0.447 0.254s0.355-0.101 0.446-0.252l0.001-0.002 1.018-2.036 1.075 2.509c0.076 0.18 0.25 0.303 0.453 0.303 0.010 0 0.019-0 0.028-0.001l-0.001 0c0.211-0.009 0.387-0.148 0.452-0.338l0.001-0.004 1.1-3.292 1.973 4.341c0.080 0.174 0.253 0.292 0.453 0.293h0c0.019-0 0.037-0.001 0.056-0.003l-0.002 0c0.216-0.024 0.389-0.183 0.435-0.389l0.001-0.003 1.081-5.042 0.45 1.575c0.062 0.211 0.253 0.362 0.48 0.363h3.010c-0.023 0.041-0.044 0.085-0.069 0.126-1.359 2.252-3.060 4.149-5.055 5.682l-0.048 0.035-3.338 2.529-3.338-2.53c-2.043-1.568-3.744-3.465-5.052-5.627l-0.051-0.090c-0.024-0.041-0.045-0.085-0.069-0.127z"></path>
      <path d="M5.5 13h1v1h-1v-1z"></path>
      <path d="M9 16.5h1v1h-1v-1z"></path>
      <path d="M7.5 20h1v1h-1v-1z"></path>
      <path d="M23.5 20h1v1h-1v-1z"></path>
      <path d="M21 17.5h1v1h-1v-1z"></path>
      <path d="M25.5 14.5h1v1h-1v-1z"></path>
    </symbol>
    <symbol id="icon-healthcare-skin" viewBox="0 0 32 32">
      <path d="M14.494 14.584c0.162 0 0.32-0.078 0.416-0.223 0.153-0.23 0.091-0.54-0.139-0.693-1.386-0.924-2.748-0.038-2.805 0-0.229 0.152-0.29 0.46-0.139 0.689s0.461 0.293 0.691 0.145c0.035-0.023 0.874-0.552 1.698-0.002 0.085 0.057 0.182 0.084 0.277 0.084z"></path>
      <path d="M17.281 18.567c-1.252 0.592-2.55 0.011-2.575-0-0.249-0.117-0.546-0.010-0.664 0.239s-0.011 0.547 0.239 0.666c0.046 0.022 0.786 0.363 1.77 0.363 0.507 0 1.081-0.091 1.657-0.363 0.25-0.118 0.356-0.416 0.239-0.666s-0.416-0.357-0.666-0.239z"></path>
      <path d="M17.217 13.668c-0.229 0.152-0.29 0.46-0.139 0.689s0.461 0.293 0.691 0.145c0.036-0.023 0.874-0.552 1.698-0.002 0.085 0.057 0.182 0.084 0.277 0.084 0.162 0 0.32-0.078 0.416-0.223 0.153-0.23 0.091-0.54-0.139-0.693-1.386-0.924-2.748-0.038-2.805 0z"></path>
      <path d="M23.569 1.254c-1.285-0.959-2.742-1.411-3.905-1.207-0.666 0.116-1.192 0.442-1.522 0.944-0.191 0.291-0.282 0.718-0.315 1.102-0.362-0.055-0.729-0.093-1.105-0.093h-1.454c-4.286 0-7.773 3.697-7.773 8.242v7.008c0 0.689 0.561 1.25 1.25 1.25h0.5c0.2 0 0.387-0.052 0.555-0.136 0.284 0.919 0.824 2.026 1.851 2.999 0.499 0.473 1.021 0.819 1.532 1.087 0.054 1.067-0.012 3.619-1.745 4.587-0.487 0.272-1.126 0.463-1.552 0.463-1.257-0.006-3.39-0.013-3.551 0.002-2.122 0.208-3.861 1.771-4.328 3.89-0.033 0.148 0.003 0.303 0.099 0.42s0.238 0.187 0.39 0.187h26.778c0.151 0 0.295-0.069 0.39-0.187s0.131-0.272 0.099-0.42c-0.467-2.119-2.207-3.682-4.329-3.89-0.162-0.016-2.294-0.009-3.549-0.002-0.428 0-1.067-0.19-1.554-0.463-1.67-0.934-1.791-3.339-1.75-4.466 0.582-0.278 1.185-0.665 1.759-1.208 1.025-0.971 1.564-2.075 1.85-3 0.168 0.084 0.356 0.137 0.556 0.137h0.5c0.689 0 1.25-0.561 1.25-1.25v-7.008c0-1.020-0.184-1.992-0.504-2.894 0.603-0.13 1.35-0.376 1.647-0.833 0.917-1.394 0.008-3.705-2.069-5.261zM15.267 3h1.454c0.465 0 0.918 0.051 1.357 0.146 0.074 0.043 0.155 0.074 0.246 0.074 0.005 0 0.009-0.003 0.014-0.003 2.955 0.779 5.156 3.628 5.156 7.025v2.783c-0.081-0.016-0.164-0.025-0.25-0.025h-0.5c-0.086 0-0.169 0.009-0.25 0.025v-1.525c0-0.145-0.063-0.283-0.172-0.378s-0.255-0.138-0.398-0.117c-4.394 0.627-7.352-2.512-7.929-3.185v-2.32c0-0.276-0.224-0.5-0.5-0.5s-0.5 0.224-0.5 0.5v2.441c-0.127 0.517-0.464 1.439-1.326 2.179-0.505 0.434-1.122 0.742-1.785 0.892-0.228 0.052-0.39 0.254-0.39 0.488l0 1.525c-0.081-0.017-0.165-0.025-0.25-0.025h-0.5c-0.086 0-0.169 0.009-0.25 0.025v-2.783c-0-3.993 3.038-7.242 6.773-7.242zM9.495 17.25c0 0.136-0.114 0.25-0.25 0.25h-0.5c-0.136 0-0.25-0.114-0.25-0.25v-3c0-0.136 0.114-0.25 0.25-0.25h0.5c0.136 0 0.25 0.114 0.25 0.25v3zM19.841 27.91c0.487 0.272 1.314 0.59 2.045 0.59 1.245-0.005 3.285-0.011 3.449-0.002 1.48 0.145 2.728 1.123 3.266 2.502h-25.433c0.537-1.38 1.783-2.357 3.254-2.501 0.175-0.010 2.215-0.004 3.462 0.001 0.729 0 1.556-0.318 2.043-0.59 1.967-1.1 2.267-3.602 2.267-5.023 0.703 0.237 1.331 0.332 1.767 0.362 0.011 0 0.023 0.001 0.035 0.001s0.023-0 0.035-0.001c0.389-0.027 0.934-0.108 1.545-0.292 0.010 1.433 0.332 3.872 2.266 4.953zM19.651 20.637c-1.371 1.299-2.988 1.561-3.656 1.612-0.668-0.051-2.285-0.313-3.656-1.612-1.518-1.436-1.796-3.221-1.844-3.887v-4.867c0.673-0.208 1.298-0.551 1.826-1.004 0.706-0.606 1.128-1.309 1.378-1.9 1.151 1.168 3.898 3.399 7.796 3.080l0.001 2.184c0 0.002-0.001 0.005-0.001 0.007v2.482c-0.052 0.711-0.338 2.479-1.844 3.905zM23.494 17.25c0 0.136-0.114 0.25-0.25 0.25h-0.5c-0.136 0-0.25-0.114-0.25-0.25v-3c0-0.136 0.114-0.25 0.25-0.25h0.5c0.136 0 0.25 0.114 0.25 0.25v3zM24.801 5.967c-0.081 0.114-0.539 0.316-1.204 0.44-0.986-1.98-2.71-3.479-4.782-4.095 0.014-0.331 0.085-0.654 0.162-0.772 0.177-0.269 0.466-0.44 0.86-0.509 0.879-0.151 2.081 0.238 3.133 1.023 1.599 1.199 2.438 2.989 1.831 3.913z"></path>
      <path d="M6.498 6c-0.208-0.004-2.004-0.122-2.004-3 0-0.276-0.224-0.5-0.5-0.5s-0.5 0.224-0.5 0.5c0 2.881-1.799 2.996-2 3h-0.003c-0-0-0.002-0-0.003 0-0 0-0 0-0 0s-0 0-0 0h-0c-0 0-0 0-0.001 0-0.272 0.005-0.491 0.227-0.491 0.5 0 0.275 0.222 0.498 0.496 0.5 0.208 0.004 2.004 0.122 2.004 3 0 0.276 0.224 0.5 0.5 0.5s0.5-0.224 0.5-0.5c0-2.878 1.796-2.996 2.004-3h0.002c0 0 0 0 0 0s0 0 0 0h0c0 0 0 0 0.001 0 0.272-0.005 0.491-0.227 0.491-0.5 0-0.275-0.222-0.498-0.496-0.5zM3.994 7.638c-0.281-0.535-0.648-0.895-1.014-1.138 0.366-0.243 0.733-0.603 1.014-1.138 0.281 0.535 0.648 0.895 1.014 1.138-0.366 0.243-0.733 0.603-1.014 1.138z"></path>
      <path d="M23.494 22.5h-0.003c0-0-0.002-0-0.003 0s-0 0-0 0c-0 0-0 0-0 0h-0c-0 0-0 0-0.001 0-0.272 0.005-0.491 0.227-0.491 0.5 0 0.275 0.222 0.498 0.496 0.5 0.208 0.004 2.004 0.122 2.004 3 0 0.276 0.224 0.5 0.5 0.5s0.5-0.224 0.5-0.5c0-2.878 1.796-2.996 2.004-3h0.002c0 0 0 0 0 0s0 0 0 0h0c0 0 0 0 0.001 0 0.272-0.005 0.491-0.227 0.491-0.5 0-0.275-0.222-0.498-0.496-0.5-0.208-0.004-2.004-0.122-2.004-3 0-0.276-0.224-0.5-0.5-0.5s-0.5 0.224-0.5 0.5c0 2.881-1.799 2.996-2 3zM25.994 21.862c0.281 0.535 0.648 0.895 1.014 1.138-0.366 0.243-0.733 0.603-1.014 1.138-0.281-0.535-0.648-0.895-1.014-1.138 0.366-0.243 0.733-0.603 1.014-1.138z"></path>
      <path d="M6.28 20.5c0-0.276-0.224-0.5-0.5-0.5s-0.5 0.224-0.5 0.5c0 1.911-1.16 1.997-1.286 2-0.001 0-0.001 0-0.001 0s-0.001 0-0.001 0-0.001 0-0.001 0 0 0-0.001 0-0.002-0-0.003 0h-0.001c-0.272 0.004-0.492 0.227-0.492 0.5 0 0.274 0.221 0.497 0.495 0.5 0.137 0.004 1.291 0.094 1.291 2 0 0.276 0.224 0.5 0.5 0.5s0.5-0.224 0.5-0.5c0-1.906 1.154-1.996 1.291-2 0 0 0 0 0.001 0h0.001c0.272-0.004 0.492-0.227 0.492-0.5 0-0.274-0.221-0.497-0.495-0.5-0.137-0.004-1.291-0.094-1.291-2zM5.78 23.528c-0.145-0.219-0.311-0.392-0.481-0.528 0.17-0.136 0.335-0.309 0.481-0.528 0.145 0.219 0.311 0.392 0.481 0.528-0.17 0.136-0.335 0.309-0.481 0.528z"></path>
    </symbol>
  </defs>
</svg>